mtllib Mouse.mtl
g g0
v 0.717715 0.507709 -1.47561
v 0.717715 0.384473 -0.0346762
v 1.29131 -0.673017 -2.59032
v 0.747447 -0.673017 -3.13419
v 0.423938 0.673018 -1.88934
v -0.793898 -0.673017 -3.13419
v -1.33776 -0.673016 -2.59032
v -0.470388 0.673019 -1.88934
v 0.747447 -0.673017 -3.13419
v -0.609493 0.0324011 -2.89514
v 0.563043 0.032401 -2.89514
v -0.793898 -0.673017 -3.13419
v -1.11322 -0.673018 1.12649
v -0.793898 -0.673017 -3.13419
v -0.563846 -0.673018 1.57745
v -1.33776 -0.673016 -2.59032
v 1.29131 -0.673017 -2.59032
v 0.517396 -0.673018 1.57745
v 0.747447 -0.673017 -3.13419
v 1.06677 -0.673018 1.12649
v -0.563846 -0.673018 1.57745
v 0.517396 -0.673018 1.57745
v 1.06677 0.0324009 -2.48141
v 1.06677 -0.673018 1.12649
v 1.29131 -0.673017 -2.59032
v 0.391583 0.467768 0.379056
v 0.976775 -0.167858 0.971123
v 0.517396 -0.673018 1.57745
v 1.06677 -0.673018 1.12649
v 0.472758 -0.167858 1.38485
v -0.764165 0.384473 -0.0346763
v -0.764165 0.507709 -1.47561
v -1.11322 -0.673018 1.12649
v -0.563846 -0.673018 1.57745
v -0.438033 0.467768 0.379056
v -0.519207 -0.167858 1.38485
v -1.33776 -0.673016 -2.59032
v -1.02322 -0.167858 0.971123
v -1.11322 0.0324012 -2.48141
v -1.11322 -0.673018 1.12649
v 0.517396 -0.673018 1.57745
v -0.793898 -0.673017 -3.13419
v 0.747447 -0.673017 -3.13419
v -0.563846 -0.673018 1.57745
vn -7.7341e-008 -1 -2.87185e-007
vn -9.37966e-008 -1 -2.91765e-007
vn -9.37966e-008 -1 -2.91765e-007
vn -9.37966e-008 -1 -2.91765e-007
vn -1.10252e-007 -1 -2.96344e-007
vn -9.37966e-008 -1 -2.91765e-007
vn -5.90894e-007 -1 -2.6211e-007
vn -5.6341e-007 -1 -2.67214e-007
vn -5.6341e-007 -1 -2.67214e-007
vn -5.6341e-007 -1 -2.67214e-007
vn -5.35926e-007 -1 -2.72317e-007
vn -5.6341e-007 -1 -2.67214e-007
vn 0.287985 0.636973 0.715074
vn -0.214165 0.583341 0.783484
vn -1.74264e-007 0.356251 0.93439
vn -0.214165 0.583341 0.783484
vn -1.6676e-007 0.356251 0.93439
vn -1.74264e-007 0.356251 0.93439
vn -0.650897 0.390727 -0.650895
vn -0.628883 0.349053 -0.694743
vn -0.439735 0.490542 -0.752331
vn -0.628883 0.349053 -0.694743
vn -0.573581 0.666634 -0.476029
vn -0.439735 0.490542 -0.752331
vn -0.277184 0.597251 -0.752636
vn 0.157419 0.506797 -0.847571
vn 2.06423e-007 0.320951 -0.947096
vn 0.157419 0.506797 -0.847571
vn 1.71322e-007 0.320951 -0.947096
vn 2.06423e-007 0.320951 -0.947096
vn 0.979472 0.192702 0.059172
vn 0.968124 0.245283 0.0507118
vn 0.878971 0.462972 0.114311
vn 0.968124 0.245283 0.0507118
vn 0.844871 0.534969 -0.000891058
vn 0.878971 0.462972 0.114311
vn 0.598718 0.330989 0.729371
vn 0.598718 0.330989 0.729372
vn 0.423371 0.4844 0.76558
vn 0.598718 0.330989 0.729372
vn 0.645297 0.643789 0.41125
vn 0.423371 0.4844 0.76558
vn -0.91493 0.401214 0.0439434
vn -0.889034 0.45784 0.00105574
vn -0.969429 0.240812 0.0470837
vn -0.889034 0.45784 0.00105574
vn -0.953845 0.294719 0.0576237
vn -0.969429 0.240812 0.0470837
vn 0.670636 0.317012 -0.670635
vn 0.628267 0.355829 -0.691857
vn 0.599443 0.603672 -0.525594
vn 0.628267 0.355829 -0.691857
vn 0.209284 0.584095 -0.784241
vn 0.599443 0.603672 -0.525594
vn 0.251615 0.929551 -0.269488
vn 0.673916 0.607858 -0.419935
vn 0.33975 0.721311 -0.603556
vn 0.251615 0.929551 -0.269488
vn 0.209284 0.584095 -0.784241
vn -0.100186 0.746013 -0.658352
vn -0.269507 0.955357 -0.121073
vn 0.251615 0.929551 -0.269488
vn -0.100186 0.746013 -0.658352
vn -0.269507 0.955357 -0.121073
vn -0.353314 0.689716 -0.63203
vn -0.672532 0.651793 -0.350524
vn -0.269507 0.955357 -0.121073
vn -0.717866 0.696139 0.00767653
vn -0.570704 0.811031 0.128554
vn -0.816867 0.532775 -0.221086
vn -0.717866 0.696139 0.00767653
vn -0.269507 0.955357 -0.121073
vn -0.717866 0.696139 0.00767653
vn -0.824615 0.556975 -0.098943
vn -0.760115 0.536195 0.367043
vn -0.570704 0.811031 0.128554
vn -0.717866 0.696139 0.00767653
vn -0.760115 0.536195 0.367043
vn -0.697658 0.583434 0.415786
vn -0.226937 0.908674 0.350444
vn -0.570704 0.811031 0.128554
vn -0.226937 0.908674 0.350444
vn -0.269507 0.955357 -0.121073
vn -0.570704 0.811031 0.128554
vn -0.269507 0.955357 -0.121073
vn -0.226937 0.908674 0.350444
vn 0.250779 0.93657 0.24484
vn 0.251615 0.929551 -0.269488
vn -0.269507 0.955357 -0.121073
vn 0.250779 0.93657 0.24484
vn 0.251615 0.929551 -0.269488
vn 0.250779 0.93657 0.24484
vn 0.574986 0.817951 0.0186001
vn 0.772889 0.564799 -0.289213
vn 0.251615 0.929551 -0.269488
vn 0.574986 0.817951 0.0186001
vn 0.574986 0.817951 0.0186001
vn 0.684744 0.718721 0.12069
vn 0.782048 0.615372 -0.0985829
vn 0.684744 0.718721 0.12069
vn 0.794075 0.52905 0.299251
vn 0.844871 0.534969 -0.000891058
vn 0.794075 0.52905 0.299251
vn 0.684744 0.718721 0.12069
vn 0.250779 0.93657 0.24484
vn 0.250779 0.93657 0.24484
vn 0.287985 0.636973 0.715074
vn 0.645297 0.643789 0.41125
vn 0.250779 0.93657 0.24484
vn -0.226937 0.908674 0.350444
vn 0.101976 0.750255 0.653236
vn -0.226937 0.908674 0.350444
vn -0.103428 0.629919 0.769743
vn 0.101976 0.750255 0.653236
vn -0.226937 0.908674 0.350444
vn -0.697658 0.583434 0.415786
vn -0.214165 0.583341 0.783484
vn -0.598717 0.33099 0.729372
vn -0.265482 0.495231 0.827203
vn -0.697658 0.583434 0.415786
vn -0.598718 0.330989 0.729372
vn -0.598717 0.33099 0.729372
vn -0.697658 0.583434 0.415786
vn 0.250779 0.93657 0.24484
vn 0.684744 0.718721 0.12069
vn 0.574986 0.817951 0.0186001
vn 3.1631e-007 -1 -2.75517e-007
vn 2.35024e-007 -1 -2.69425e-007
vn 2.35024e-007 -1 -2.69425e-007
vn 2.35024e-007 -1 -2.69425e-007
vn 1.53739e-007 -1 -2.63333e-007
vn 2.35024e-007 -1 -2.69425e-007
vt 0.279304 -0.46666
vt 0.166367 -0.46666
vt 0.262447 -0.811891
vt 0.166367 -0.46666
vt 0.183223 -0.811891
vt 0.262447 -0.811891
vt 0.279304 -0.46666
vt 0.262447 -0.811891
vt 0.319154 -0.50651
vt 0.262447 -0.811891
vt 0.302701 -0.778847
vt 0.319154 -0.50651
vt 0.364047 -0.716078
vt 0.364047 -0.581757
vt 0.337967 -0.722122
vt 0.364047 -0.581757
vt 0.337967 -0.575712
vt 0.337967 -0.722122
vt 0.975967 -0.544561
vt 0.902323 -0.470917
vt 0.943598 -0.569531
vt 0.902323 -0.470917
vt 0.887575 -0.501322
vt 0.943598 -0.569531
vt 0.943598 -0.569531
vt 0.943598 -0.728303
vt 0.975967 -0.544561
vt 0.943598 -0.728303
vt 0.975967 -0.753273
vt 0.975967 -0.544561
vt 0.399032 -0.796513
vt 0.902323 -0.826918
vt 0.42007 -0.784326
vt 0.902323 -0.826918
vt 0.887575 -0.796513
vt 0.42007 -0.784326
vt 0.337967 -0.722122
vt 0.399032 -0.796513
vt 0.364047 -0.716078
vt 0.399032 -0.796513
vt 0.42007 -0.784326
vt 0.364047 -0.716078
vt 0.42007 -0.513508
vt 0.887575 -0.501322
vt 0.399032 -0.501322
vt 0.887575 -0.501322
vt 0.902323 -0.470917
vt 0.399032 -0.501322
vt 0.902323 -0.826918
vt 0.975967 -0.753273
vt 0.887575 -0.796513
vt 0.975967 -0.753273
vt 0.943598 -0.728303
vt 0.887575 -0.796513
vt 0.807403 -0.709467
vt 0.887575 -0.796513
vt 0.943598 -0.728303
vt 0.807403 -0.709467
vt 0.943598 -0.728303
vt 0.943598 -0.569531
vt 0.807403 -0.588367
vt 0.807403 -0.709467
vt 0.943598 -0.569531
vt 0.807403 -0.588367
vt 0.943598 -0.569531
vt 0.887575 -0.501322
vt 0.807403 -0.588367
vt 0.75138 -0.548587
vt 0.556265 -0.548587
vt 0.887575 -0.501322
vt 0.75138 -0.548587
vt 0.807403 -0.588367
vt 0.75138 -0.548587
vt 0.887575 -0.501322
vt 0.42007 -0.513508
vt 0.556265 -0.548587
vt 0.75138 -0.548587
vt 0.42007 -0.513508
vt 0.42007 -0.513508
vt 0.500241 -0.592749
vt 0.556265 -0.548587
vt 0.500241 -0.592749
vt 0.807403 -0.588367
vt 0.556265 -0.548587
vt 0.807403 -0.588367
vt 0.500241 -0.592749
vt 0.500241 -0.705086
vt 0.807403 -0.709467
vt 0.807403 -0.588367
vt 0.500241 -0.705086
vt 0.807403 -0.709467
vt 0.500241 -0.705086
vt 0.75138 -0.749247
vt 0.887575 -0.796513
vt 0.807403 -0.709467
vt 0.75138 -0.749247
vt 0.75138 -0.749247
vt 0.556265 -0.749247
vt 0.887575 -0.796513
vt 0.556265 -0.749247
vt 0.42007 -0.784326
vt 0.887575 -0.796513
vt 0.42007 -0.784326
vt 0.556265 -0.749247
vt 0.500241 -0.705086
vt 0.500241 -0.705086
vt 0.364047 -0.716078
vt 0.42007 -0.784326
vt 0.500241 -0.705086
vt 0.500241 -0.592749
vt 0.364047 -0.716078
vt 0.500241 -0.592749
vt 0.364047 -0.581757
vt 0.364047 -0.716078
vt 0.500241 -0.592749
vt 0.42007 -0.513508
vt 0.364047 -0.581757
vt 0.337967 -0.575712
vt 0.364047 -0.581757
vt 0.42007 -0.513508
vt 0.399032 -0.501322
vt 0.337967 -0.575712
vt 0.42007 -0.513508
vt 0.500241 -0.705086
vt 0.556265 -0.749247
vt 0.75138 -0.749247
vt 0.183223 -0.811891
vt 0.166367 -0.46666
vt 0.142969 -0.778847
vt 0.166367 -0.46666
vt 0.126517 -0.50651
vt 0.142969 -0.778847
usemtl acmat_0
f 42/1/1 43/2/2 44/3/3
f 43/4/4 41/5/5 44/6/6
f 14/7/7 15/8/8 16/9/9
f 15/10/10 13/11/11 16/12/12
f 30/13/13 36/14/14 22/15/15
f 36/16/16 21/17/17 22/18/18
f 6/19/19 7/20/20 10/21/21
f 7/22/22 39/23/23 10/24/24
f 10/25/25 11/26/26 12/27/27
f 11/28/28 9/29/29 12/30/30
f 24/31/31 25/32/32 27/33/33
f 25/34/34 23/35/35 27/36/36
f 28/37/37 29/38/38 30/39/39
f 29/40/40 27/41/41 30/42/42
f 38/43/43 39/44/44 40/45/45
f 39/46/46 37/47/47 40/48/48
f 3/49/49 4/50/50 23/51/51
f 4/52/52 11/53/53 23/54/54
f 5/55/55 23/56/56 11/57/57
f 5/58/58 11/59/59 10/60/60
f 8/61/61 5/62/62 10/63/63
f 8/64/64 10/65/65 39/66/66
f 8/67/67 32/68/68 31/69/69
f 39/70/70 32/71/71 8/72/72
f 32/73/73 39/74/74 38/75/75
f 31/76/76 32/77/77 38/78/78
f 38/79/79 35/80/80 31/81/81
f 35/82/82 8/83/83 31/84/84
f 8/85/85 35/86/86 26/87/87
f 5/88/88 8/89/89 26/90/90
f 5/91/91 26/92/92 1/93/93
f 23/94/94 5/95/95 1/96/96
f 1/97/97 2/98/98 23/99/99
f 2/100/100 27/101/101 23/102/102
f 27/103/103 2/104/104 26/105/105
f 26/106/106 30/107/107 27/108/108
f 26/109/109 35/110/110 30/111/111
f 35/112/112 36/113/113 30/114/114
f 35/115/115 38/116/116 36/117/117
f 34/118/118 36/119/119 38/120/120
f 33/121/121 34/122/122 38/123/123
f 26/124/124 2/125/125 1/126/126
f 18/127/127 19/128/128 20/129/129
f 19/130/130 17/131/131 20/132/132
